<?xml version="1.0" standalone="no"?>
<!DOCTYPE svg PUBLIC "-//W3C//DTD SVG 20010904//EN"
 "http://www.w3.org/TR/2001/REC-SVG-20010904/DTD/svg10.dtd">
<svg version="1.0" xmlns="http://www.w3.org/2000/svg"
 width="1707.000000pt" height="1707.000000pt" viewBox="0 0 1707.000000 1707.000000"
 preserveAspectRatio="xMidYMid meet">
<metadata>
Created by potrace 1.14, written by Peter Selinger 2001-2017
</metadata>
<g transform="translate(0.000000,1707.000000) scale(0.100000,-0.100000)"
fill="#000000" stroke="none">
<path d="M3587 13924 c-1 -1 -45 -5 -97 -8 -52 -4 -113 -9 -135 -11 -22 -3
-59 -7 -82 -10 -24 -3 -64 -8 -90 -11 -99 -11 -317 -56 -367 -75 -30 -11 -60
-27 -69 -37 -19 -21 -34 -77 -42 -157 -4 -33 -8 -67 -11 -76 -3 -9 -60 -53
-128 -98 -227 -149 -240 -164 -288 -326 -18 -62 -120 -515 -132 -583 -4 -29
-53 -273 -61 -307 -2 -11 -52 -68 -110 -125 -231 -228 -352 -354 -429 -444
-22 -27 -48 -56 -57 -65 -19 -20 -128 -157 -152 -191 -216 -311 -312 -506
-387 -790 -37 -140 -52 -197 -55 -210 -2 -8 -17 -73 -34 -145 -25 -107 -72
-325 -95 -435 -14 -68 -47 -238 -52 -265 -3 -16 -18 -102 -35 -190 -16 -88
-32 -173 -35 -190 -2 -16 -7 -37 -9 -45 -2 -8 -6 -37 -10 -65 -3 -27 -8 -57
-10 -65 -2 -8 -7 -28 -9 -45 -3 -16 -12 -70 -21 -120 -9 -49 -18 -106 -21
-125 -3 -19 -7 -42 -9 -50 -2 -8 -7 -33 -10 -55 -3 -23 -8 -52 -10 -65 -3 -14
-8 -41 -11 -60 -6 -39 -21 -129 -29 -175 -3 -16 -12 -73 -20 -125 -9 -52 -18
-106 -20 -120 -2 -14 -9 -54 -14 -90 -6 -36 -13 -74 -15 -85 -2 -11 -7 -42
-10 -68 -4 -27 -9 -59 -12 -70 -2 -12 -7 -42 -10 -67 -3 -25 -7 -52 -9 -60 -2
-8 -20 -116 -40 -240 -43 -271 -42 -264 -50 -320 -4 -24 -8 -47 -10 -50 -1 -3
-6 -27 -9 -55 -4 -27 -13 -88 -21 -135 -8 -47 -16 -98 -18 -115 -3 -16 -17
-100 -32 -185 -30 -181 -32 -191 -40 -250 -3 -25 -8 -52 -10 -60 -2 -8 -7 -31
-10 -50 -11 -69 -15 -90 -20 -120 -3 -16 -7 -45 -10 -62 -3 -18 -21 -118 -40
-223 -62 -346 -69 -408 -69 -600 0 -197 17 -330 65 -514 33 -129 66 -219 137
-371 154 -333 463 -685 775 -883 72 -46 219 -120 272 -137 22 -7 45 -15 50
-19 6 -3 15 -7 20 -8 228 -64 345 -80 545 -78 173 3 200 6 444 51 15 3 89 25
164 50 293 95 627 293 801 473 116 121 221 267 546 766 109 167 299 470 615
980 47 77 131 212 186 300 54 88 104 169 110 180 19 34 264 428 285 457 10 15
19 32 19 38 0 5 5 10 10 10 6 0 10 4 10 10 0 23 444 698 524 795 91 111 93
112 351 120 570 18 5036 30 5290 14 95 -6 151 -22 185 -51 72 -62 215 -265
450 -633 35 -55 78 -122 95 -150 99 -155 155 -247 155 -255 0 -4 3 -10 8 -12
4 -1 35 -48 68 -103 34 -55 166 -269 294 -475 128 -206 245 -395 260 -420 28
-46 88 -143 192 -310 33 -52 65 -104 71 -114 31 -51 192 -305 212 -336 12 -19
80 -122 151 -228 71 -107 134 -202 139 -211 22 -37 172 -239 214 -290 261
-312 800 -593 1221 -637 30 -4 73 -9 95 -13 49 -9 307 -7 395 3 120 13 294 57
405 103 422 173 810 556 1031 1018 47 99 125 311 138 375 3 14 14 71 25 126
25 123 34 223 34 374 1 157 -8 256 -44 460 -37 214 -88 514 -95 555 -2 17 -9
55 -14 85 -5 30 -12 69 -14 85 -3 17 -28 167 -56 335 -28 168 -53 321 -55 340
-3 19 -7 46 -10 60 -3 14 -8 43 -10 65 -3 22 -16 105 -30 185 -26 161 -34 208
-41 260 -2 19 -7 46 -9 60 -3 14 -14 84 -25 155 -12 72 -23 137 -25 145 -2 8
-7 35 -10 60 -3 25 -7 56 -9 70 -8 41 -37 213 -41 240 -3 24 -18 110 -20 120
0 3 -4 26 -8 51 -4 25 -10 57 -12 70 -2 13 -9 51 -14 84 -6 33 -12 71 -15 85
-3 14 -17 95 -31 180 -14 85 -35 200 -45 255 -10 55 -22 116 -25 135 -3 19
-15 80 -25 135 -11 55 -21 113 -24 129 -3 16 -10 52 -16 80 -11 55 -17 87 -25
126 -8 40 -7 39 -70 330 -2 8 -12 54 -24 102 -11 48 -23 98 -25 110 -22 114
-129 501 -155 563 -100 234 -246 468 -438 702 -107 130 -212 241 -492 517 -67
66 -121 120 -121 121 0 1 -13 66 -30 146 -16 79 -31 155 -34 169 -8 42 -47
234 -51 255 -3 11 -12 52 -20 90 -9 39 -18 81 -21 95 -13 68 -59 221 -81 267
-28 61 -69 97 -238 210 -66 45 -126 90 -133 102 -7 12 -15 56 -18 98 -6 83
-18 116 -56 149 -26 24 -114 47 -298 78 -19 3 -46 8 -60 11 -14 3 -47 7 -75
11 -27 3 -52 7 -55 9 -4 2 -114 11 -285 21 -85 5 -516 4 -600 -1 -156 -10
-479 -96 -558 -148 -30 -19 -53 -68 -62 -127 -11 -78 -15 -98 -24 -123 -10
-25 -15 -30 -154 -132 -159 -116 -154 -107 -292 -610 -104 -381 -164 -553
-203 -588 -26 -23 -54 -26 -337 -33 -143 -3 -327 -7 -410 -9 -82 -2 -519 -6
-970 -10 l-820 -7 -90 -28 c-133 -42 -190 -53 -315 -65 -60 -6 -296 -5 -340 0
-19 3 -55 7 -80 10 -63 8 -153 30 -240 58 -70 23 -91 25 -305 26 -860 7 -1796
19 -2015 26 -214 7 -272 14 -291 31 -32 29 -89 184 -164 444 -51 179 -98 350
-105 380 -4 19 -22 80 -41 135 -29 88 -39 106 -89 156 -30 31 -95 86 -145 123
-92 69 -109 89 -118 141 -16 91 -28 138 -42 165 -20 38 -109 81 -255 121 -66
18 -73 20 -90 23 -8 2 -40 8 -70 14 -71 15 -116 20 -275 28 -130 6 -443 12
-448 8z m9983 -2098 c87 -12 216 -78 313 -158 203 -171 280 -484 180 -738 -48
-122 -156 -251 -263 -317 -138 -84 -217 -105 -379 -99 -128 4 -132 5 -213 36
-147 55 -288 183 -358 325 -53 107 -71 181 -72 291 0 189 85 383 215 493 16
14 34 30 41 36 23 23 134 86 183 105 28 10 73 22 100 26 26 3 49 7 50 8 4 3
169 -3 203 -8z m-9660 -570 c186 -8 207 -13 242 -54 22 -27 23 -33 22 -227 -3
-366 -5 -403 -30 -437 -48 -65 -323 -336 -416 -408 -28 -23 -61 -40 -75 -40
-44 0 -108 50 -246 190 -176 180 -247 262 -262 307 -19 54 -12 410 11 583 7
53 33 77 97 89 46 8 446 6 657 -3z m4765 -777 c151 -42 286 -171 339 -323 28
-79 28 -252 0 -324 -46 -124 -145 -231 -271 -294 l-83 -41 -119 -1 c-132 0
-175 11 -271 72 -79 49 -145 125 -191 218 -38 76 -41 86 -43 180 -1 54 1 118
6 141 12 70 68 171 128 231 72 74 122 107 206 138 61 22 80 24 164 20 52 -3
113 -10 135 -17z m3438 -53 c240 -67 411 -240 478 -483 29 -106 24 -254 -14
-364 -112 -328 -438 -517 -772 -448 -204 42 -365 179 -479 407 l-37 73 2 154
c1 174 8 215 50 300 86 175 256 313 449 363 90 24 234 23 323 -2z m2970 9
c230 -49 452 -259 503 -476 4 -19 10 -41 12 -49 2 -8 6 -61 8 -117 4 -116 -16
-206 -68 -308 -112 -221 -346 -366 -593 -367 -256 0 -482 142 -598 377 -45 90
-60 158 -62 275 -4 220 89 417 260 545 79 60 214 115 315 128 36 5 190 0 223
-8z m-11951 -362 l229 -228 -5 -49 c-3 -29 -15 -62 -30 -85 -14 -20 -116 -126
-225 -235 l-200 -200 -303 0 c-323 -1 -352 3 -381 48 -8 12 -18 44 -21 71 -5
39 -11 707 -7 811 1 11 17 37 36 57 l35 36 138 3 c75 2 220 2 321 1 l184 -3
229 -227z m1983 184 l33 -38 0 -432 c0 -462 2 -446 -49 -501 -17 -18 -36 -19
-306 -21 -159 0 -303 3 -320 7 -35 9 -118 84 -316 283 -149 149 -167 175 -167
231 0 55 26 86 254 311 127 126 194 185 218 192 19 6 157 9 326 9 l294 -2 33
-39z m-1406 -787 c62 -32 427 -399 448 -448 12 -29 15 -85 16 -277 0 -260 -6
-348 -29 -382 -25 -40 -78 -45 -434 -46 -500 0 -521 2 -547 54 -21 40 -29 154
-27 392 1 225 1 227 26 264 41 60 406 424 452 450 23 12 65 10 95 -7z m9884
-429 c345 -80 571 -429 502 -774 -26 -133 -81 -234 -184 -337 -73 -75 -100
-94 -181 -133 -122 -58 -168 -67 -315 -63 -98 4 -132 9 -189 30 -171 64 -304
183 -381 341 -47 95 -66 174 -66 275 -1 113 22 205 77 317 94 191 272 321 482
352 65 9 197 5 255 -8z m-3988 -145 c285 -75 388 -112 437 -159 37 -34 28 -52
-41 -86 -105 -53 -288 -105 -656 -187 -11 -2 -45 -7 -76 -10 -64 -6 -96 12
-106 61 -9 47 -10 377 -1 410 4 16 20 39 35 51 l27 21 125 -34 c69 -18 185
-49 256 -67z m-1778 41 c39 -21 42 -34 40 -240 -2 -154 -4 -170 -21 -183 -11
-8 -31 -14 -45 -15 -14 0 -35 -3 -46 -5 -32 -8 -485 -8 -550 0 -85 10 -94 14
-102 44 -9 35 -9 330 0 363 8 30 36 44 92 48 21 1 40 3 42 4 1 2 128 2 281 1
232 -1 283 -4 309 -17z"/>
<path d="M8414 10445 c-54 -16 -152 -70 -189 -103 -193 -177 -202 -486 -21
-668 149 -148 378 -180 561 -78 87 48 195 176 209 247 2 7 6 23 10 37 10 39
13 160 5 213 -13 80 -57 156 -134 232 -58 58 -83 75 -145 99 -86 33 -225 43
-296 21z m275 -113 c66 -32 151 -115 179 -176 100 -211 -11 -450 -239 -516
-49 -14 -53 -4 -53 154 l-1 146 -132 0 -133 0 0 -45 0 -45 68 -1 c37 -1 78 -2
92 -2 l25 -2 0 -107 0 -108 -35 6 c-101 17 -209 104 -262 211 -57 117 -37 270
52 382 43 54 141 119 194 128 34 5 34 5 41 -38 3 -24 7 -93 9 -154 l2 -110
131 -3 c144 -3 144 -3 135 61 -4 23 -9 27 -36 28 -58 1 -139 9 -143 12 -7 7
-6 172 1 194 8 25 28 23 105 -15z"/>
</g>
</svg>
